<?xml version="1.0" encoding="UTF-8" standalone="no"?>
<!-- Created with Inkscape (http://www.inkscape.org/) -->

<svg
   xmlns:dc="http://purl.org/dc/elements/1.1/"
   xmlns:cc="http://creativecommons.org/ns#"
   xmlns:rdf="http://www.w3.org/1999/02/22-rdf-syntax-ns#"
   xmlns:svg="http://www.w3.org/2000/svg"
   xmlns="http://www.w3.org/2000/svg"
   xmlns:sodipodi="http://sodipodi.sourceforge.net/DTD/sodipodi-0.dtd"
   xmlns:inkscape="http://www.inkscape.org/namespaces/inkscape"
   width="744.09448819"
   height="1052.3622047"
   id="svg3054"
   version="1.1"
   inkscape:version="0.48.4 r9939"
   sodipodi:docname="logo.svg"
   inkscape:export-filename="C:\Users\Simon\Google Drive\Documents\Seneca\ULI101SA\public_html\assignment1\img\logo.png"
   inkscape:export-xdpi="88.915665"
   inkscape:export-ydpi="88.915665">
  <defs
     id="defs3056" />
  <sodipodi:namedview
     id="base"
     pagecolor="#ffffff"
     bordercolor="#666666"
     borderopacity="1.0"
     inkscape:pageopacity="0.0"
     inkscape:pageshadow="2"
     inkscape:zoom="1.0794827"
     inkscape:cx="317.32581"
     inkscape:cy="521.57567"
     inkscape:document-units="px"
     inkscape:current-layer="layer1"
     showgrid="false"
     inkscape:window-width="1198"
     inkscape:window-height="947"
     inkscape:window-x="286"
     inkscape:window-y="39"
     inkscape:window-maximized="0" />
  <metadata
     id="metadata3059">
    <rdf:RDF>
      <cc:Work
         rdf:about="">
        <dc:format>image/svg+xml</dc:format>
        <dc:type
           rdf:resource="http://purl.org/dc/dcmitype/StillImage" />
        <dc:title />
      </cc:Work>
    </rdf:RDF>
  </metadata>
  <g
     inkscape:label="Layer 1"
     inkscape:groupmode="layer"
     id="layer1">
    <text
       xml:space="preserve"
       style="font-size:18px;font-style:normal;font-variant:normal;font-weight:normal;font-stretch:normal;line-height:125%;letter-spacing:0px;word-spacing:0px;fill:#000000;fill-opacity:1;stroke:none;font-family:Arial;-inkscape-font-specification:Arial"
       x="381.39209"
       y="694.84857"
       id="text3076"
       sodipodi:linespacing="125%"><tspan
         sodipodi:role="line"
         id="tspan3078"
         x="381.39209"
         y="694.84857" /></text>
    <g
       id="g2997"
       transform="matrix(0.98572157,0,0,0.98572157,-5.0817064,7.5130377)">
      <g
         transform="matrix(0.30084535,0,0,0.30084535,256.58933,895.99815)"
         id="g4086">
        <path
           style="fill:#162d50;fill-opacity:1;stroke:none"
           d="m -273.91984,-1120.1538 c 0,0 82.4517,-20.1098 116.07341,-46.0292 2.00126,-2.0012 -74.04683,95.0602 -154.09746,71.045 -3.0019,1.0006 38.02405,-25.0158 38.02405,-25.0158 z"
           id="path4048-2"
           inkscape:connector-curvature="0"
           sodipodi:nodetypes="cccc" />
        <path
           style="fill:#ffcc00;stroke:none"
           d="m -151.20489,-1222.4933 -0.044,22.9266 c 0,0 -134.58512,88.0557 -146.59271,99.0626 -12.00759,11.007 -21.51361,0.5004 -21.51361,0.5004 0,0 123.12185,-127.4927 168.15033,-122.4896 z"
           id="path4046-5"
           inkscape:connector-curvature="0"
           sodipodi:nodetypes="ccscc" />
        <path
           style="fill:#162d50;fill-opacity:1;stroke:none"
           d="m -392.40142,-1179.0537 c 0,0 24.59811,-103.2907 192.12151,-135.5858 7.00443,6.0038 15.00949,12.0076 15.00949,12.0076 0,0 -108.06835,51.0323 -202.12783,138.0873 -4.28207,3.9632 -5.00317,-14.5091 -5.00317,-14.5091 z"
           id="path4040-7"
           inkscape:connector-curvature="0"
           sodipodi:nodetypes="cccsc" />
        <path
           style="fill:#162d50;fill-opacity:1;stroke:none"
           d="m -366.61582,-1132.7552 25.15325,15.3284 c 0,0 163.19658,-95.1481 181.20797,-101.1519 18.01139,-6.0038 11.00696,-29.0184 11.00696,-29.0184 0,0 -139.31882,26.7862 -217.36818,114.8419 z"
           id="path4044-1"
           inkscape:connector-curvature="0"
           sodipodi:nodetypes="ccscc" />
        <path
           style="fill:#ffcc00;fill-opacity:1;stroke:none"
           d="m -188.30925,-1302.9508 25.05275,29.3372 c 0,0 -159.10062,94.0595 -194.12277,138.0874 -9.34376,11.7464 -23.01455,-16.0102 -23.01455,-16.0102 0,0 29.98205,-66.3606 192.08457,-151.4144 z"
           id="path4042-1"
           inkscape:connector-curvature="0"
           sodipodi:nodetypes="ccscc" />
        <path
           style="fill:#ffcc00;stroke:none"
           d="m -318.15807,-1307.8338 c 0,0 -103.26169,48.2291 -76.24461,132.2823 6.0038,4.0025 17.1008,-73.9293 81.86707,-121.9157 -5.12359,-7.6031 -5.62246,-10.3666 -5.62246,-10.3666 z"
           id="path4038-1"
           inkscape:connector-curvature="0"
           sodipodi:nodetypes="cccc" />
        <path
           style="fill:#162d50;fill-opacity:1;stroke:none"
           d="m -254.75864,-1346.2487 -50.20384,-20.9556 -6.46813,3.7344 36.37726,27.8198 -33.71495,21.6664 -20.08862,-5.7945 12.2633,17.2407 c 3.52604,6.1073 5.30441,13.1875 8.83045,19.2948 l 5.04174,-20.2675 35.62121,-18.3647 5.90399,45.4135 6.46813,-3.7344 6.93821,-53.9827 c 10.30957,-5.8523 20.849,-13.3296 26.2155,-23.2184 -11.7711,-0.8798 -23.32093,4.7616 -33.18425,11.1482 z"
           id="path4034-5"
           inkscape:connector-curvature="0"
           sodipodi:nodetypes="ccccccccccccccc" />
      </g>
      <text
         sodipodi:linespacing="125%"
         id="text3014"
         y="552.9975"
         x="224.86696"
         style="font-size:68.82264709px;font-style:normal;font-variant:normal;font-weight:normal;font-stretch:normal;line-height:125%;letter-spacing:0px;word-spacing:0px;fill:#162d50;fill-opacity:1;stroke:#162d50;stroke-width:1.5;stroke-miterlimit:4;stroke-dasharray:none;font-family:Arial;-inkscape-font-specification:Arial"
         xml:space="preserve"><tspan
           y="552.9975"
           x="224.86696"
           id="tspan3016"
           sodipodi:role="line"><tspan
             id="tspan3020"
             style="font-size:56px;fill:#162d50;fill-opacity:1;stroke:#162d50;stroke-width:1.5;stroke-miterlimit:4;stroke-dasharray:none">Skedaddle.com</tspan></tspan></text>
      <text
         sodipodi:linespacing="125%"
         id="text3088"
         y="539.26019"
         x="610.17816"
         style="font-size:21px;font-style:normal;font-variant:normal;font-weight:bold;font-stretch:normal;line-height:125%;letter-spacing:0px;word-spacing:0px;fill:#162d50;fill-opacity:1;stroke:none;font-family:Arial;-inkscape-font-specification:Arial Bold"
         xml:space="preserve"><tspan
           y="539.26019"
           x="610.17816"
           id="tspan3090"
           sodipodi:role="line">™</tspan></text>
    </g>
  </g>
</svg>
